<?xml version="1.0" standalone="no"?>
<!DOCTYPE svg PUBLIC "-//W3C//DTD SVG 20010904//EN"
 "http://www.w3.org/TR/2001/REC-SVG-20010904/DTD/svg10.dtd">
<svg version="1.0" xmlns="http://www.w3.org/2000/svg"
 width="348.000000pt" height="348.000000pt" viewBox="0 0 348.000000 348.000000"
 preserveAspectRatio="xMidYMid meet">

<g transform="translate(0.000000,348.000000) scale(0.100000,-0.100000)"
fill="#000000" stroke="none">
<path d="M0 1740 l0 -1740 1740 0 1740 0 0 1740 0 1740 -1740 0 -1740 0 0
-1740z m1663 1576 c7 -17 97 -18 97 -1 0 6 14 10 31 11 19 1 26 -2 18 -7 -26
-15 40 -31 78 -18 37 12 87 -1 110 -28 10 -12 16 -12 43 2 20 10 35 13 39 7 3
-5 25 -13 49 -17 23 -4 55 -13 70 -21 16 -7 52 -15 81 -18 28 -2 60 -11 69
-19 9 -8 30 -15 46 -15 19 0 37 -8 50 -24 12 -13 41 -33 66 -43 25 -10 50 -25
56 -32 6 -7 14 -13 18 -13 4 0 23 -18 43 -40 42 -45 49 -47 75 -23 19 17 23
11 19 -29 -2 -12 5 -18 17 -18 37 0 83 -22 81 -39 -1 -9 1 -25 5 -36 5 -11 10
-26 12 -32 2 -7 13 -13 24 -13 15 0 20 -7 20 -28 0 -21 7 -32 26 -40 14 -7 23
-16 20 -20 -2 -4 4 -19 15 -32 10 -14 19 -19 19 -12 0 18 32 14 58 -8 33 -27
55 -118 47 -189 -7 -65 7 -140 29 -157 9 -6 16 -23 16 -38 0 -23 2 -25 19 -16
27 14 41 13 41 -5 0 -8 9 -32 20 -52 11 -21 20 -54 20 -74 0 -67 11 -100 30
-94 11 4 20 -1 25 -12 10 -26 14 -159 5 -173 -5 -7 -3 -24 3 -38 9 -19 8 -26
-4 -36 -12 -8 -15 -26 -13 -68 2 -32 -2 -60 -7 -64 -5 -3 -7 -15 -3 -26 4 -15
2 -19 -7 -16 -8 3 -22 1 -32 -4 -15 -8 -20 -5 -24 11 -4 17 -11 20 -32 15 -36
-9 -48 -23 -55 -67 -6 -32 -3 -41 20 -63 14 -15 19 -24 10 -21 -9 4 -16 2 -16
-2 0 -5 5 -11 12 -13 8 -3 6 -14 -7 -36 -21 -34 -31 -40 -38 -19 -2 6 -2 2 0
-10 2 -13 -1 -23 -6 -23 -10 0 -17 28 -26 105 -3 22 -8 65 -11 95 -8 65 -38
135 -67 155 -43 30 -87 13 -87 -34 0 -41 -96 -182 -167 -246 -79 -72 -144
-125 -152 -125 -5 0 -19 9 -32 19 -22 18 -24 28 -27 130 -3 92 0 124 17 181
19 61 25 70 45 70 13 0 26 -7 30 -15 9 -24 46 -19 46 7 0 39 -28 58 -86 58
-47 0 -55 -3 -74 -29 -36 -51 -50 -97 -57 -188 -4 -59 -13 -98 -26 -120 -10
-18 -20 -33 -21 -33 -2 0 -18 24 -37 53 -34 52 -34 53 -37 184 -3 103 -7 135
-19 145 -13 10 -19 8 -34 -11 -21 -26 -21 -23 -21 -211 0 -116 -2 -139 -19
-167 -44 -72 -73 -43 -94 93 -8 54 -15 122 -15 149 0 28 -4 66 -9 87 -7 30 -6
37 9 41 23 6 28 38 36 252 4 99 10 190 15 202 4 12 18 23 31 25 33 4 34 35 3
68 -24 25 -28 37 -29 97 l-1 68 -60 7 c-33 4 -222 12 -420 17 -284 7 -363 6
-373 -3 -7 -7 -15 -34 -16 -60 -2 -25 -14 -66 -27 -91 l-24 -44 27 -28 c21
-22 28 -42 33 -93 4 -36 13 -111 21 -166 8 -56 14 -120 14 -143 0 -38 2 -42
23 -39 31 4 32 47 3 258 -13 96 -22 177 -20 179 7 8 306 1 361 -8 32 -6 130
-13 218 -16 163 -7 199 -11 191 -23 -2 -4 -7 -75 -10 -157 -6 -150 -13 -235
-22 -267 -4 -13 -12 -16 -33 -12 -35 7 -82 -16 -110 -53 l-20 -28 -1 35 c0 40
-14 60 -42 60 -33 0 -38 -33 -34 -219 4 -190 -2 -221 -43 -221 -39 0 -51 49
-37 155 2 17 7 80 11 141 6 96 5 113 -10 127 -40 40 -65 12 -65 -73 0 -74 -18
-297 -25 -320 -3 -9 -18 -23 -34 -33 -23 -14 -31 -15 -38 -5 -4 7 -9 98 -10
203 -1 104 -5 201 -8 215 -16 63 -76 79 -135 35 -31 -23 -36 -24 -46 -10 -18
25 -62 18 -95 -14 -24 -24 -29 -26 -29 -11 0 23 -23 42 -43 34 -8 -3 -34 -28
-57 -55 -22 -27 -45 -49 -51 -49 -5 0 -9 23 -9 50 0 77 -41 109 -95 74 -13 -9
-29 -13 -34 -10 -5 4 -33 -14 -61 -39 -65 -58 -122 -94 -161 -102 l-31 -6 16
32 c21 39 106 266 106 281 0 6 4 8 10 5 5 -3 7 0 4 8 -3 8 6 54 20 103 60 217
58 379 -9 474 -18 26 -31 51 -27 56 4 4 2 4 -5 1 -6 -4 -24 -2 -40 4 -38 15
-163 18 -163 4 0 -6 -18 -16 -40 -21 -22 -6 -37 -7 -34 -3 3 5 11 9 18 9 7 0
25 9 40 21 15 12 34 18 44 15 11 -4 8 2 -8 15 l-24 21 39 -6 40 -6 -35 12
c-24 8 -30 13 -17 15 9 3 17 11 17 19 0 8 9 14 20 14 11 0 20 5 20 12 0 6 3 8
6 5 11 -10 46 14 41 28 -7 17 39 56 61 53 11 -2 18 5 20 19 2 12 10 27 18 33
11 10 14 9 14 -6 1 -18 1 -18 15 0 15 20 15 20 30 0 12 -16 14 -17 15 -3 0 9
14 31 30 49 17 18 30 36 30 41 0 5 9 9 20 9 12 0 20 -7 20 -17 1 -16 2 -15 12
2 15 27 30 36 49 29 12 -3 21 6 32 34 11 28 23 41 41 44 18 4 26 1 26 -8 0 -8
-4 -14 -10 -14 -5 0 -10 -4 -10 -10 0 -20 29 -9 32 13 2 17 11 23 36 25 22 2
32 8 32 20 0 13 2 14 13 3 10 -11 10 -14 0 -18 -22 -8 -14 -23 11 -23 18 0 28
9 39 38 15 35 16 35 16 10 1 -41 34 -37 55 6 9 19 16 40 17 48 0 9 2 10 6 1 3
-10 11 -9 34 3 16 8 27 19 24 24 -8 13 37 23 80 18 32 -4 36 -1 50 34 16 40
29 48 38 24z m-882 -721 c10 -10 21 -38 25 -63 8 -52 -10 -231 -32 -332 -8
-36 -22 -94 -30 -130 -8 -36 -38 -137 -66 -226 l-52 -161 -53 -29 c-29 -15
-53 -32 -53 -37 0 -5 -8 -6 -17 -3 -10 4 -15 4 -11 1 9 -9 -32 -54 -46 -51 -6
2 -8 1 -3 -1 9 -6 -24 -63 -36 -63 -5 0 -4 6 2 14 7 9 8 17 2 20 -5 3 -12 0
-14 -6 -3 -7 -6 -2 -6 11 -1 15 4 21 12 18 7 -3 13 6 14 24 1 16 -2 29 -7 29
-6 0 -10 7 -10 16 0 9 5 12 13 8 6 -4 9 -4 5 1 -4 4 -2 17 3 28 8 15 8 22 -2
28 -7 4 -16 6 -20 3 -10 -6 2 69 11 76 8 6 33 322 31 390 -1 25 2 40 6 33 5
-6 8 17 8 50 1 78 7 127 17 127 4 0 14 21 22 48 8 26 15 40 15 32 1 -8 11 -1
24 18 14 21 28 31 39 28 21 -5 34 12 20 26 -7 7 -18 6 -33 -2 -16 -8 -9 3 21
35 25 26 54 51 65 55 30 13 115 3 136 -15z m-285 -15 c0 -12 -4 -16 -9 -11 -5
5 -6 14 -3 20 10 15 12 14 12 -9z m-146 -115 c0 -42 -3 -55 -15 -55 -18 0 -19
-12 -3 -28 7 -7 8 -12 3 -12 -6 0 -5 -4 1 -8 20 -14 -39 -568 -60 -555 -5 4
-6 1 -2 -6 10 -16 -3 -103 -13 -96 -5 2 -6 -14 -4 -38 3 -23 1 -53 -5 -66 l-9
-24 -22 22 c-14 14 -20 29 -16 39 4 9 9 32 12 50 4 24 2 32 -9 32 -29 0 -41
26 -29 62 6 18 13 100 15 183 2 88 8 151 14 153 5 1 8 12 5 22 -3 11 2 31 11
45 9 13 16 41 16 60 0 33 2 36 23 29 l22 -6 -22 24 c-13 13 -23 29 -23 35 0
11 42 33 68 34 10 0 12 3 5 6 -18 7 -16 24 7 53 11 14 20 41 20 63 0 20 2 37
5 37 3 0 5 -25 5 -55z m1334 44 c104 1 242 -3 307 -10 l119 -12 0 -37 c0 -20
-2 -39 -4 -41 -3 -2 -57 -1 -122 3 -64 3 -219 9 -343 12 -124 4 -246 9 -271
12 l-45 6 3 40 4 40 82 -8 c44 -5 166 -7 270 -5z m-1144 -13 c0 -2 -8 -10 -17
-17 -16 -13 -17 -12 -4 4 13 16 21 21 21 13z m-67 -96 c-3 -12 -8 -19 -11 -16
-5 6 5 36 12 36 2 0 2 -9 -1 -20z m1182 -15 c382 -8 485 -18 485 -45 0 -15
-112 -12 -372 11 -131 11 -290 19 -353 17 -63 -2 -115 -2 -115 -1 0 1 3 9 6
18 6 15 17 16 88 10 45 -3 162 -8 261 -10z m1595 -255 c0 -5 -5 -10 -11 -10
-5 0 -7 5 -4 10 3 6 8 10 11 10 2 0 4 -4 4 -10z m-2197 -345 c6 -46 5 -48 -8
-31 -15 20 -20 67 -8 79 9 10 9 8 16 -48z m437 15 c7 -13 10 -93 9 -220 -2
-245 0 -250 89 -250 35 0 66 6 79 15 20 14 25 13 56 -5 33 -19 37 -20 78 -6
26 9 45 12 47 6 5 -15 62 -12 63 3 1 6 1 73 0 147 -2 114 1 143 18 188 55 146
87 132 90 -40 1 -109 21 -228 40 -247 9 -9 35 -22 58 -30 53 -17 92 -4 124 44
l23 33 24 -19 c30 -23 84 -25 117 -3 24 16 25 16 25 -9 0 -37 45 -85 87 -93
54 -10 104 10 169 70 l59 53 20 -35 c25 -45 73 -78 139 -96 49 -14 155 -29
128 -19 -8 3 0 12 20 23 30 16 35 16 51 2 9 -8 15 -17 12 -20 -3 -3 5 -10 18
-16 25 -13 34 -50 18 -70 -6 -8 -9 -21 -5 -30 4 -11 1 -16 -10 -16 -9 0 -16 5
-16 11 0 6 -7 4 -15 -5 -8 -8 -15 -29 -15 -46 0 -44 -46 -131 -65 -124 -9 4
-25 -4 -40 -20 l-25 -27 -22 21 c-25 23 -43 26 -35 6 4 -10 0 -14 -13 -13 -10
1 -17 4 -14 8 2 4 1 9 -3 12 -5 2 -2 2 5 1 6 -2 12 1 12 7 0 7 -12 8 -32 3
-18 -4 -41 -8 -50 -8 -14 0 -15 -3 -5 -15 10 -12 9 -13 -10 -3 -12 7 -37 12
-55 12 -29 0 -37 -5 -51 -35 -9 -19 -20 -35 -25 -35 -5 0 -18 14 -30 30 -28
37 -51 38 -85 4 -27 -26 -57 -101 -57 -140 0 -13 -10 -30 -22 -38 -44 -31 -66
-16 -83 57 -12 53 -12 55 11 67 19 11 25 10 40 -4 25 -25 58 -17 62 15 2 21
-6 34 -35 58 -21 17 -45 31 -55 31 -21 0 -85 -36 -119 -67 -24 -22 -35 -24
-105 -23 -44 1 -89 0 -101 -2 -25 -5 -53 -26 -53 -41 0 -18 -42 -57 -61 -57
-28 0 -30 13 -9 69 36 94 23 131 -49 131 -34 0 -75 -33 -66 -53 4 -7 0 -4 -8
6 -23 28 -87 33 -116 9 -20 -15 -25 -31 -29 -81 -4 -53 -7 -61 -21 -55 -9 4
-23 7 -33 8 -14 0 -15 4 -3 26 15 30 35 120 35 159 0 16 -8 39 -18 51 -16 20
-23 21 -48 13 -16 -5 -34 -19 -40 -31 -14 -28 -24 -18 -24 25 0 27 -4 33 -21
33 -36 0 -78 -38 -90 -83 -7 -23 -21 -50 -32 -60 -20 -18 -21 -17 -53 17 -55
60 -114 41 -164 -52 -17 -32 -42 -70 -55 -85 -14 -14 -24 -30 -23 -34 6 -15
-59 -14 -71 1 -7 8 -15 40 -18 70 -7 72 11 98 69 94 26 -1 43 3 49 13 13 21
11 27 -17 46 -53 35 -184 -18 -184 -75 0 -7 -12 -24 -26 -37 -22 -21 -37 -25
-86 -25 -33 0 -67 4 -77 10 -14 7 -23 5 -36 -10 -10 -11 -22 -17 -27 -14 -5 3
-16 0 -24 -7 -8 -6 -17 -9 -21 -6 -3 4 8 13 26 20 17 7 28 16 24 20 -6 6 11
11 30 8 4 0 7 5 7 12 0 8 9 22 20 32 11 10 32 38 46 63 l27 45 20 -39 c26 -52
46 -74 69 -74 24 0 24 40 -1 71 -10 13 -30 47 -44 75 -39 77 -58 82 -224 59
-17 -2 -20 1 -15 13 11 30 56 82 89 103 18 11 35 29 38 40 21 66 -36 131 -97
110 -46 -16 -85 -64 -101 -123 -16 -57 -17 -134 -2 -158 8 -13 6 -13 -10 0
-17 14 -18 13 -13 -2 7 -16 -18 -35 -30 -23 -3 3 0 5 6 5 7 0 12 8 12 18 0 14
-2 15 -10 2 -5 -8 -10 -12 -10 -8 0 3 -3 15 -6 25 -5 15 -4 15 5 3 9 -13 11
-13 11 2 0 9 -9 19 -19 23 -20 6 -36 33 -26 44 3 3 10 -1 15 -9 9 -13 10 -13
10 0 0 12 2 12 9 2 6 -10 10 -10 21 3 11 13 10 15 -4 9 -9 -3 -16 -1 -16 5 0
6 -7 8 -15 5 -8 -4 -15 -1 -15 5 0 6 5 11 10 11 6 0 10 5 10 11 0 5 -5 7 -10
4 -6 -3 -10 5 -10 19 0 20 4 24 20 21 13 -3 18 0 14 7 -5 7 -2 9 9 5 11 -4 14
-2 10 9 -5 13 8 19 32 14 5 -1 7 2 3 5 -11 11 11 47 24 39 6 -4 8 -3 4 4 -3 6
12 39 34 73 22 34 51 86 65 114 23 50 27 53 94 77 l69 25 -1 -161 c-1 -175 9
-235 46 -261 64 -45 150 13 194 132 6 17 16 76 22 130 18 154 19 159 47 171
14 7 27 12 30 12 3 0 3 -97 0 -215 -3 -137 -1 -217 5 -221 21 -12 56 7 74 39
16 31 18 52 12 205 l-5 170 26 41 c15 23 29 41 33 41 9 0 19 -55 19 -105 0
-58 8 -75 35 -75 40 0 58 27 50 74 -12 62 -9 82 15 115 25 36 35 38 50 11z
m-489 -87 c7 -8 23 -19 35 -24 21 -7 22 -12 18 -86 -9 -139 -52 -275 -89 -277
-42 -3 -56 263 -21 379 24 79 28 84 37 51 4 -15 13 -34 20 -43z m-611 -115 c0
-21 -3 -29 -10 -22 -5 5 -7 19 -4 32 9 31 14 27 14 -10z m2526 -55 c10 -38 19
-90 19 -118 0 -45 -2 -50 -23 -53 -25 -4 -72 40 -98 91 -14 27 -14 31 3 51 11
11 30 38 44 58 13 21 27 38 30 38 4 0 15 -30 25 -67z m-2341 20 c-9 -21 -31
-61 -50 -89 -19 -28 -35 -57 -35 -65 0 -9 -5 -7 -12 6 -6 11 -16 23 -21 27
-23 15 79 148 103 133 6 -3 10 -3 9 2 -3 15 1 23 11 23 6 0 4 -16 -5 -37z
m-330 -32 c-3 -6 -11 -8 -17 -5 -6 4 -5 9 3 15 16 10 23 4 14 -10z m-5 -25 c0
-2 -7 -7 -16 -10 -8 -3 -12 -2 -9 4 6 10 25 14 25 6z m230 -91 c0 -12 -19 -12
-23 0 -4 9 -1 12 9 8 7 -3 14 -7 14 -8z m2717 -27 c-3 -8 -6 -5 -6 6 -1 11 2
17 5 13 3 -3 4 -12 1 -19z m-37 -12 c0 -2 -8 -10 -17 -17 -16 -13 -17 -12 -4
4 13 16 21 21 21 13z m1 -39 l-24 -22 19 27 c10 14 21 24 23 22 3 -3 -6 -15
-18 -27z m-2471 -233 c-25 -8 -61 -17 -80 -19 -30 -4 -32 -3 -15 7 25 15 72
26 110 26 26 1 24 -1 -15 -14z m2437 -16 c-3 -8 -6 -5 -6 6 -1 11 2 17 5 13 3
-3 4 -12 1 -19z m-2552 -18 c3 -5 4 -10 1 -10 -2 0 -12 -3 -20 -6 -12 -5 -15
-2 -10 10 7 18 20 21 29 6z m976 -145 c-6 -82 -8 -90 -28 -93 -19 -3 -21 2
-25 53 -2 45 1 59 13 66 9 4 22 22 29 39 7 17 14 29 15 28 1 -2 -1 -43 -4 -93z
m1309 51 c0 -11 -19 -15 -25 -6 -3 5 1 10 9 10 9 0 16 -2 16 -4z m80 -30 c0
-3 -4 -8 -10 -11 -5 -3 -10 -1 -10 4 0 6 5 11 10 11 6 0 10 -2 10 -4z m-1140
-44 c0 -10 -7 -27 -15 -38 -16 -21 -20 -8 -9 34 8 26 24 29 24 4z m-382 -119
c-1 -129 7 -209 22 -218 4 -2 5 -16 3 -30 -3 -13 -2 -40 1 -59 5 -27 14 -37
39 -46 56 -21 260 -24 392 -5 66 9 130 17 142 18 12 1 25 6 30 11 5 5 1 7 -10
3 -15 -6 -16 -3 -7 13 5 10 10 76 10 145 0 125 0 126 -22 123 -22 -3 -23 -8
-28 -109 -6 -118 -12 -133 -69 -149 -48 -14 -315 -23 -371 -13 -36 7 -47 14
-54 35 -8 23 -5 31 22 58 22 22 32 41 32 63 l0 32 19 -41 c19 -42 47 -55 93
-46 29 6 52 111 37 166 -5 16 -7 31 -5 33 2 2 21 -8 42 -22 44 -30 93 -31 155
-1 26 12 42 14 60 7 37 -14 74 -3 108 33 16 17 36 36 44 42 18 15 207 23 207
9 2 -39 14 -93 25 -111 15 -23 75 -50 75 -34 0 5 6 7 14 4 8 -3 35 4 61 15 43
19 48 19 71 5 13 -9 24 -21 24 -26 0 -5 -7 -2 -16 6 -8 9 -20 16 -27 16 -6 0
-3 -6 7 -13 17 -13 17 -15 1 -46 -14 -28 -20 -32 -43 -26 -46 11 -62 9 -62 -9
0 -7 -8 -20 -17 -27 -15 -12 -16 -12 -10 4 4 11 3 16 -3 12 -6 -3 -10 -18 -10
-33 0 -36 -14 -57 -31 -46 -11 6 -12 5 -3 -7 15 -19 -2 -79 -21 -79 -8 0 -15
6 -16 13 0 6 -5 -1 -11 -16 -7 -20 -15 -26 -28 -22 -11 3 -20 0 -24 -10 -3 -9
-10 -13 -16 -10 -6 4 -13 -7 -16 -25 -7 -32 -23 -51 -25 -28 -3 30 4 51 27 85
29 43 33 72 6 45 -47 -47 -62 -80 -62 -136 0 -43 -3 -56 -15 -56 -8 0 -15 5
-15 11 0 18 -33 5 -36 -15 -3 -23 -22 -36 -41 -29 -9 3 -13 -3 -13 -21 0 -14
-4 -26 -10 -26 -5 0 -10 5 -10 10 0 19 -21 10 -29 -13 -5 -13 -16 -29 -25 -36
-14 -12 -19 -11 -34 3 -21 18 -48 21 -57 5 -4 -6 -24 -9 -44 -8 -20 2 -49 -3
-64 -11 -23 -11 -37 -12 -73 -2 -24 7 -57 12 -73 12 -16 0 -34 7 -41 15 -7 9
-20 13 -28 10 -8 -3 -21 3 -29 15 -8 11 -18 18 -23 15 -18 -11 -89 16 -121 46
l-33 30 18 30 c20 34 15 62 -9 53 -8 -4 -30 -3 -48 0 -24 5 -36 14 -44 36 -7
18 -7 32 -2 36 23 14 5 24 -43 24 -45 1 -56 5 -71 25 -10 14 -15 30 -12 35 9
15 -17 80 -29 72 -6 -3 -3 6 7 21 21 33 22 41 1 33 -8 -3 -12 -2 -9 4 3 6 2
10 -4 10 -5 0 -11 -5 -13 -11 -2 -5 -11 6 -19 25 -18 39 -9 50 10 14 l12 -23
-5 23 c-3 17 -1 22 10 18 7 -3 13 -2 11 2 -2 9 38 62 47 62 3 0 6 -9 6 -19 0
-30 41 -69 80 -76 73 -13 140 64 140 161 0 44 5 64 16 64 2 0 3 -57 2 -127z
m1396 115 c-3 -4 3 -8 13 -9 16 0 16 -1 -2 -8 -17 -7 -16 -9 9 -15 16 -4 26
-9 23 -12 -10 -10 -58 9 -54 21 3 7 -6 12 -25 12 -30 0 -30 -1 -12 -16 20 -17
33 -58 15 -46 -6 3 -11 13 -11 21 0 25 -18 15 -29 -16 -5 -16 -8 -30 -5 -30 3
0 -2 -7 -11 -16 -9 -9 -19 -14 -22 -11 -3 3 2 13 11 22 16 16 23 40 9 32 -5
-3 -13 0 -19 7 -7 8 -5 17 8 30 10 11 18 15 18 10 0 -6 -5 -15 -10 -20 -7 -7
-6 -11 5 -11 8 0 13 2 11 5 -2 2 0 16 5 31 8 22 16 27 44 27 18 0 31 -4 29 -8z
m-1464 -57 c0 -47 -20 -85 -47 -89 -17 -3 -24 4 -32 33 -5 20 -7 50 -4 68 5
31 7 32 44 29 38 -4 39 -5 39 -41z m-660 30 c0 -5 -5 -11 -12 -13 -7 -3 -5 -7
6 -11 9 -4 15 -3 11 2 -10 18 14 22 42 7 29 -14 132 -15 166 -1 13 6 17 2 17
-16 0 -43 23 -88 52 -100 15 -6 28 -16 28 -21 0 -5 4 -7 9 -4 5 4 14 -15 20
-41 9 -41 8 -52 -7 -72 -10 -14 -25 -27 -33 -29 -8 -3 -2 7 14 21 15 14 27 29
27 33 0 4 -9 -2 -20 -14 -12 -12 -28 -22 -37 -22 -13 0 -14 3 -6 11 6 6 9 17
6 24 -2 8 0 23 6 34 8 14 8 22 -1 27 -6 4 -9 3 -5 -2 9 -16 -19 -44 -52 -50
-29 -6 -31 -5 -31 25 0 34 -16 40 -35 14 -10 -13 -16 -14 -26 -6 -8 5 -24 9
-37 8 -13 -1 -25 2 -28 7 -3 4 -10 8 -15 8 -6 0 -7 -4 -4 -10 3 -5 2 -10 -4
-10 -5 0 -9 9 -8 19 1 15 5 17 18 10 10 -5 27 -9 39 -9 17 0 19 4 14 28 -4 15
-13 33 -22 40 -9 6 -11 12 -5 12 14 0 24 26 17 44 -4 12 -12 13 -31 5 -22 -8
-24 -7 -15 4 9 11 7 16 -12 25 -18 8 -26 8 -28 0 -2 -6 -14 -13 -27 -15 -13
-2 -20 1 -16 7 3 5 -1 10 -11 10 -15 0 -15 -2 0 -26 10 -14 16 -30 14 -35 -2
-6 -11 6 -21 26 -17 36 -17 37 3 42 11 3 20 9 20 14 0 5 5 9 10 9 6 0 10 -4
10 -9z m1169 -58 c1 -28 -2 -33 -23 -33 -32 0 -42 17 -23 38 8 9 18 28 22 42
8 24 8 24 16 5 4 -11 8 -35 8 -52z m743 -7 c2 -19 0 -32 -4 -30 -8 5 -12 64
-4 64 2 0 6 -15 8 -34z m20 2 c-7 -7 -12 -8 -12 -2 0 14 12 26 19 19 2 -3 -1
-11 -7 -17z m-1935 -20 c-3 -7 -5 -2 -5 12 0 14 2 19 5 13 2 -7 2 -19 0 -25z
m862 -45 c0 -31 -2 -34 -9 -18 -12 28 -12 55 0 55 6 0 10 -17 9 -37z m110 -58
c0 -40 -15 -15 -24 40 -6 39 -6 39 9 15 8 -14 15 -38 15 -55z m995 -17 c9 -17
14 -34 11 -37 -6 -6 -39 38 -41 56 -4 24 15 13 30 -19z"/>
<path d="M2640 2984 c0 -8 5 -12 10 -9 6 3 10 10 10 16 0 5 -4 9 -10 9 -5 0
-10 -7 -10 -16z"/>
<path d="M698 2753 c7 -3 16 -2 19 1 4 3 -2 6 -13 5 -11 0 -14 -3 -6 -6z"/>
<path d="M1456 2278 c-21 -29 -21 -102 -1 -118 19 -16 94 -7 106 12 14 21 10
82 -7 106 -10 15 -25 22 -49 22 -24 0 -39 -7 -49 -22z m64 -32 c0 -3 -4 -8
-10 -11 -5 -3 -10 -1 -10 4 0 6 5 11 10 11 6 0 10 -2 10 -4z"/>
<path d="M1935 2263 c-13 -13 -16 -27 -11 -62 9 -71 53 -92 95 -47 55 59 -28
166 -84 109z"/>
<path d="M1715 2103 c-38 -2 -74 -8 -78 -12 -5 -5 -3 -36 4 -70 15 -76 38 -96
100 -88 22 3 49 13 59 22 21 19 43 92 38 126 -3 27 -9 28 -123 22z"/>
<path d="M2734 2072 c-13 -9 -11 -159 3 -173 23 -23 42 3 48 64 9 89 -12 135
-51 109z"/>
<path d="M2288 2042 c-84 -11 -73 -152 11 -152 35 0 46 12 61 68 9 34 8 47 -1
58 -18 22 -41 30 -71 26z"/>
<path d="M3218 1713 c7 -3 16 -2 19 1 4 3 -2 6 -13 5 -11 0 -14 -3 -6 -6z"/>
<path d="M3193 1668 c-2 -18 0 -20 7 -8 12 18 13 30 2 30 -4 0 -9 -10 -9 -22z"/>
<path d="M610 2570 c-14 -10 -22 -21 -19 -24 3 -3 16 5 29 19 28 30 24 32 -10
5z"/>
<path d="M621 2543 c-7 -8 -11 -16 -8 -19 2 -2 10 2 17 11 17 20 9 27 -9 8z"/>
<path d="M432 1825 c0 -16 2 -22 5 -12 2 9 2 23 0 30 -3 6 -5 -1 -5 -18z"/>
<path d="M261 1764 c0 -11 3 -14 6 -6 3 7 2 16 -1 19 -3 4 -6 -2 -5 -13z"/>
<path d="M1347 1563 c-8 -15 35 -483 46 -500 11 -17 34 -16 40 1 3 8 -1 75 -9
148 -21 198 -33 321 -34 341 0 17 -34 25 -43 10z"/>
<path d="M2027 1373 c-11 -17 -10 -464 0 -474 7 -7 16 -5 27 6 14 14 15 45 13
243 -2 202 -4 227 -19 230 -9 2 -19 -1 -21 -5z"/>
<path d="M512 1185 c0 -16 2 -22 5 -12 2 9 2 23 0 30 -3 6 -5 -1 -5 -18z"/>
<path d="M3031 1014 c0 -11 3 -14 6 -6 3 7 2 16 -1 19 -3 4 -6 -2 -5 -13z"/>
<path d="M2460 690 c-9 -6 -10 -10 -3 -10 6 0 15 5 18 10 8 12 4 12 -15 0z"/>
<path d="M2282 460 c0 -14 2 -19 5 -12 2 6 2 18 0 25 -3 6 -5 1 -5 -13z"/>
<path d="M2110 385 c1 -26 2 -28 11 -12 8 14 8 22 0 30 -8 8 -11 3 -11 -18z"/>
<path d="M2152 385 c0 -16 2 -22 5 -12 2 9 2 23 0 30 -3 6 -5 -1 -5 -18z"/>
<path d="M895 679 c-12 -19 5 -23 22 -6 16 16 16 17 1 17 -9 0 -20 -5 -23 -11z"/>
</g>
</svg>
